# xmcd
#
# Track frame offsets:
#	150
#	64518
#	76662
#	88201
#	98445
#	108636
#	125822
#	141843
#	150978
#	160476
#
# Disc length: 2307 seconds
#
# Revision: 1
# Processed by: cddbd v1.5.1PL2 Copyright (c) Steve Scherf et al.
# Submitted via: EasyCDDAExtractor 9.0.0.1
#
DISCID=7909010a
DTITLE=Divers - CD 1 - Aladin
DYEAR=2004
DGENRE=Enfants
TTITLE0=Aladin
TTITLE1=Aux Marches Du Palais
TTITLE2=Aux Marches Du Palais (Instrumentale)
TTITLE3=Jean De La Lune
TTITLE4=Jean De La Lune (Instrumentale)
TTITLE5=Auprès De Ma Blonde
TTITLE6=Auprès De Ma Blonde (Instrumentale)
TTITLE7=J'ai Du Bon Tabac
TTITLE8=J'ai Du Bon Tabac (Instrumentale)
TTITLE9=Carnaval De Venise
EXTD=
EXTT0=
EXTT1=
EXTT2=
EXTT3=
EXTT4=
EXTT5=
EXTT6=
EXTT7=
EXTT8=
EXTT9=
PLAYORDER=
